<svg width="117" height="24" viewBox="0 0 117 24" fill="none" xmlns="http://www.w3.org/2000/svg">
<circle cx="5.34619" cy="12" r="4" fill="white" stroke="#1262AE" stroke-width="2"/>
<path d="M54.9187 21.75H53.5532C53.416 21.75 53.281 21.7185 53.1606 21.6585C53.0401 21.5984 52.9381 21.5118 52.8637 21.4064C52.7894 21.301 52.7452 21.1803 52.735 21.0552C52.7249 20.9302 52.7493 20.8048 52.8059 20.6906L56.1123 14.0227L51.1476 13.9219L49.3369 15.9267C48.9917 16.3233 48.7162 16.5 48.0135 16.5H47.0943C46.9488 16.5043 46.8043 16.4764 46.673 16.4188C46.5418 16.3612 46.4276 16.2755 46.3403 16.1691C46.2182 16.0186 46.0982 15.7636 46.2152 15.3998L47.2318 12.0717C47.2395 12.0469 47.2487 12.022 47.259 11.9977C47.2595 11.9953 47.2595 11.9929 47.259 11.9906C47.2484 11.9663 47.2393 11.9414 47.2318 11.9161L46.2141 8.56687C46.1039 8.21016 46.2244 7.96078 46.3455 7.81406C46.4267 7.71549 46.5322 7.63573 46.6534 7.58118C46.7745 7.52664 46.908 7.49883 47.043 7.5H48.0135C48.5383 7.5 49.0476 7.71516 49.3472 8.0625L51.1204 10.0336L56.1123 9.96609L52.8069 3.30984C52.7502 3.19568 52.7258 3.07036 52.7358 2.94533C52.7458 2.8203 52.7899 2.69956 52.8642 2.59414C52.9384 2.48872 53.0404 2.40198 53.1607 2.34186C53.2811 2.28175 53.4161 2.25016 53.5532 2.25H54.9336C55.1261 2.25354 55.3153 2.29667 55.4872 2.3762C55.659 2.45572 55.809 2.5696 55.9261 2.70937L62.3404 9.83438L65.3036 9.76312C65.5206 9.75234 66.1217 9.74859 66.2607 9.74859C69.0952 9.75 70.7879 10.5909 70.7879 12C70.7879 12.4434 70.594 13.2656 69.2968 13.7888C68.531 14.0981 67.5092 14.2547 66.2597 14.2547C66.1222 14.2547 65.5226 14.2509 65.3026 14.2402L62.3398 14.168L55.9097 21.293C55.7925 21.4321 55.6426 21.5454 55.4711 21.6246C55.2996 21.7037 55.1108 21.7465 54.9187 21.75V21.75Z" fill="#1262AE"/>
<circle cx="111.609" cy="12" r="4" fill="white" stroke="#1262AE" stroke-width="2"/>
<line x1="0.346191" y1="23.5" x2="103.898" y2="23.5" stroke="#CCCCCC" stroke-dasharray="3 3"/>
</svg>
