<svg width="118" height="24" viewBox="0 0 118 24" fill="none" xmlns="http://www.w3.org/2000/svg">
<circle cx="5.84619" cy="12" r="4" fill="white" stroke="#1262AE" stroke-width="2"/>
<path d="M55.4187 21.75H54.0532C53.916 21.75 53.781 21.7185 53.6606 21.6585C53.5401 21.5984 53.4381 21.5118 53.3637 21.4064C53.2894 21.301 53.2452 21.1803 53.235 21.0552C53.2249 20.9302 53.2493 20.8048 53.3059 20.6906L56.6123 14.0227L51.6476 13.9219L49.8369 15.9267C49.4917 16.3233 49.2162 16.5 48.5135 16.5H47.5943C47.4488 16.5043 47.3043 16.4764 47.173 16.4188C47.0418 16.3612 46.9276 16.2755 46.8403 16.1691C46.7182 16.0186 46.5982 15.7636 46.7152 15.3998L47.7318 12.0717C47.7395 12.0469 47.7487 12.022 47.759 11.9977C47.7595 11.9953 47.7595 11.9929 47.759 11.9906C47.7484 11.9663 47.7393 11.9414 47.7318 11.9161L46.7141 8.56687C46.6039 8.21016 46.7244 7.96078 46.8455 7.81406C46.9267 7.71549 47.0322 7.63573 47.1534 7.58118C47.2745 7.52664 47.408 7.49883 47.543 7.5H48.5135C49.0383 7.5 49.5476 7.71516 49.8472 8.0625L51.6204 10.0336L56.6123 9.96609L53.3069 3.30984C53.2502 3.19568 53.2258 3.07036 53.2358 2.94533C53.2458 2.8203 53.2899 2.69956 53.3642 2.59414C53.4384 2.48872 53.5404 2.40198 53.6607 2.34186C53.7811 2.28175 53.9161 2.25016 54.0532 2.25H55.4336C55.6261 2.25354 55.8153 2.29667 55.9872 2.3762C56.159 2.45572 56.309 2.5696 56.4261 2.70937L62.8404 9.83438L65.8036 9.76312C66.0206 9.75234 66.6217 9.74859 66.7607 9.74859C69.5952 9.75 71.2879 10.5909 71.2879 12C71.2879 12.4434 71.094 13.2656 69.7968 13.7888C69.031 14.0981 68.0092 14.2547 66.7597 14.2547C66.6222 14.2547 66.0226 14.2509 65.8026 14.2402L62.8398 14.168L56.4097 21.293C56.2925 21.4321 56.1426 21.5454 55.9711 21.6246C55.7996 21.7037 55.6108 21.7465 55.4187 21.75V21.75Z" fill="#1262AE"/>
<circle cx="112.108" cy="12" r="4" fill="white" stroke="#1262AE" stroke-width="2"/>
<line x1="0.846191" y1="23.5" x2="104.398" y2="23.5" stroke="#CCCCCC" stroke-dasharray="3 3"/>
</svg>
