<svg width="58" height="15" viewBox="0 0 58 15" fill="none" xmlns="http://www.w3.org/2000/svg">
<path d="M0.510163 14.0548C0.23402 14.0548 0.0101624 13.8309 0.0101624 13.5548V1.1331C0.0101624 0.908771 0.192016 0.726917 0.416344 0.726917V0.726917C1.53799 0.726917 2.44725 1.63619 2.44725 2.75783V11.6508C2.44725 11.9269 2.67111 12.1508 2.94725 12.1508H7.84959C8.12573 12.1508 8.34959 12.3746 8.34959 12.6508V13.5548C8.34959 13.8309 8.12573 14.0548 7.84959 14.0548H0.510163Z" fill="#334158"/>
<path d="M13.9095 14.2832C12.9956 14.2832 12.1705 14.0738 11.4343 13.6549C10.7108 13.2361 10.1333 12.6585 9.70168 11.9223C9.28281 11.1734 9.07337 10.3103 9.07337 9.3329C9.07337 8.35552 9.28915 7.49873 9.72072 6.76253C10.1523 6.01363 10.7298 5.42974 11.4533 5.01087C12.1895 4.59199 13.0146 4.38256 13.9285 4.38256C14.8297 4.38256 15.6421 4.59199 16.3656 5.01087C17.1018 5.42974 17.6794 6.01363 18.0982 6.76253C18.5298 7.49873 18.7456 8.35552 18.7456 9.3329C18.7456 10.3103 18.5298 11.1734 18.0982 11.9223C17.6794 12.6585 17.1018 13.2361 16.3656 13.6549C15.6294 14.0738 14.8107 14.2832 13.9095 14.2832ZM13.9095 12.1698C14.5441 12.1698 15.0963 11.935 15.5659 11.4654C16.0356 10.983 16.2704 10.2722 16.2704 9.3329C16.2704 8.3936 16.0356 7.68913 15.5659 7.21948C15.0963 6.73714 14.5505 6.49597 13.9285 6.49597C13.2812 6.49597 12.7227 6.73714 12.253 7.21948C11.7961 7.68913 11.5676 8.3936 11.5676 9.3329C11.5676 10.2722 11.7961 10.983 12.253 11.4654C12.7227 11.935 13.2748 12.1698 13.9095 12.1698Z" fill="#334158"/>
<path d="M24.8941 14.2832C23.9294 14.2832 23.079 14.0738 22.3428 13.6549C21.6066 13.2361 21.0227 12.6522 20.5911 11.9033C20.1723 11.1544 19.9628 10.2976 19.9628 9.3329C19.9628 8.36822 20.1723 7.51143 20.5911 6.76253C21.0227 6.01363 21.6066 5.42974 22.3428 5.01087C23.079 4.59199 23.9294 4.38256 24.8941 4.38256C26.1 4.38256 27.1154 4.69989 27.9405 5.33454C28.6117 5.8405 29.0854 6.50606 29.3618 7.33121C29.4625 7.63168 29.2236 7.92396 28.9068 7.92396H27.3305C27.1059 7.92396 26.9154 7.77049 26.8164 7.5689C26.6737 7.2786 26.4646 7.04155 26.1888 6.85773C25.8207 6.59117 25.3828 6.45789 24.8751 6.45789C24.2023 6.45789 23.6312 6.71176 23.1615 7.21948C22.6919 7.72721 22.457 8.43168 22.457 9.3329C22.457 10.2341 22.6919 10.9386 23.1615 11.4463C23.6312 11.954 24.2023 12.2079 24.8751 12.2079C25.3828 12.2079 25.8207 12.081 26.1888 11.8271C26.4662 11.6422 26.6762 11.4001 26.8188 11.1008C26.916 10.8969 27.1073 10.7418 27.3332 10.7418H28.9023C29.2206 10.7418 29.4596 11.0367 29.3547 11.3372C29.0773 12.1318 28.6059 12.7901 27.9405 13.3122C27.1154 13.9596 26.1 14.2832 24.8941 14.2832Z" fill="#334158"/>
<path d="M35.5993 14.2832C34.6854 14.2832 33.8603 14.0738 33.1241 13.6549C32.4006 13.2361 31.8231 12.6585 31.3915 11.9223C30.9726 11.1734 30.7632 10.3103 30.7632 9.3329C30.7632 8.35552 30.979 7.49873 31.4105 6.76253C31.8421 6.01363 32.4197 5.42974 33.1432 5.01087C33.8794 4.59199 34.7044 4.38256 35.6183 4.38256C36.5196 4.38256 37.3319 4.59199 38.0554 5.01087C38.7916 5.42974 39.3692 6.01363 39.788 6.76253C40.2196 7.49873 40.4354 8.35552 40.4354 9.3329C40.4354 10.3103 40.2196 11.1734 39.788 11.9223C39.3692 12.6585 38.7916 13.2361 38.0554 13.6549C37.3192 14.0738 36.5005 14.2832 35.5993 14.2832ZM35.5993 12.1698C36.234 12.1698 36.7861 11.935 37.2558 11.4654C37.7254 10.983 37.9602 10.2722 37.9602 9.3329C37.9602 8.3936 37.7254 7.68913 37.2558 7.21948C36.7861 6.73714 36.2403 6.49597 35.6183 6.49597C34.971 6.49597 34.4125 6.73714 33.9428 7.21948C33.4859 7.68913 33.2574 8.3936 33.2574 9.3329C33.2574 10.2722 33.4859 10.983 33.9428 11.4654C34.4125 11.935 34.9646 12.1698 35.5993 12.1698Z" fill="#334158"/>
<path d="M47.0319 14.2832C46.0545 14.2832 45.1724 14.0928 44.3854 13.7121C43.5984 13.3186 42.9701 12.7283 42.5005 11.9413C42.0435 11.1544 41.815 10.158 41.815 8.9521V1.22692C41.815 0.950775 42.0389 0.726917 42.315 0.726917H43.7521C44.0283 0.726917 44.2521 0.950775 44.2521 1.22692V8.97114C44.2521 10.012 44.4996 10.7863 44.9947 11.294C45.5024 11.8017 46.2005 12.0556 47.089 12.0556C47.9649 12.0556 48.6567 11.8017 49.1644 11.294C49.6721 10.7863 49.926 10.012 49.926 8.97114V1.22692C49.926 0.950775 50.1498 0.726917 50.426 0.726917H51.8631C52.1392 0.726917 52.3631 0.950775 52.3631 1.22692V8.9521C52.3631 10.158 52.1219 11.1544 51.6396 11.9413C51.1572 12.7283 50.5099 13.3186 49.6975 13.7121C48.8978 14.0928 48.0093 14.2832 47.0319 14.2832Z" fill="#334158"/>
<path d="M55.3509 14.0548C55.0747 14.0548 54.8509 13.8309 54.8509 13.5548V1.1331C54.8509 0.908771 55.0327 0.726917 55.2571 0.726917V0.726917C56.3787 0.726917 57.288 1.63619 57.288 2.75783V13.5548C57.288 13.8309 57.0641 14.0548 56.788 14.0548H55.3509Z" fill="#334158"/>
</svg>
