<svg width="58" height="14" viewBox="0 0 58 14" fill="none" xmlns="http://www.w3.org/2000/svg">
<path d="M0.652967 13.5641C0.375941 13.5641 0.151367 13.3396 0.151367 13.0625V0.601086C0.151367 0.376039 0.333804 0.193604 0.55885 0.193604V0.193604C1.68408 0.193604 2.59627 1.10579 2.59627 2.23102V11.1525C2.59627 11.4295 2.82084 11.6541 3.09787 11.6541H8.0159C8.29293 11.6541 8.5175 11.8786 8.5175 12.1557V13.0625C8.5175 13.3396 8.29293 13.5641 8.0159 13.5641H0.652967Z" fill="#334158"/>
<path d="M14.0952 13.7934C13.1784 13.7934 12.3507 13.5832 11.6121 13.163C10.8863 12.7428 10.3069 12.1634 9.87393 11.4249C9.45371 10.6736 9.2436 9.80766 9.2436 8.82715C9.2436 7.84664 9.46008 6.98711 9.89303 6.24855C10.326 5.49725 10.9054 4.91149 11.6312 4.49128C12.3698 4.07106 13.1975 3.86095 14.1143 3.86095C15.0184 3.86095 15.8334 4.07106 16.5592 4.49128C17.2978 4.91149 17.8772 5.49725 18.2974 6.24855C18.7303 6.98711 18.9468 7.84664 18.9468 8.82715C18.9468 9.80766 18.7303 10.6736 18.2974 11.4249C17.8772 12.1634 17.2978 12.7428 16.5592 13.163C15.8206 13.5832 14.9993 13.7934 14.0952 13.7934ZM14.0952 11.6732C14.7319 11.6732 15.2858 11.4376 15.757 10.9664C16.2281 10.4826 16.4637 9.76945 16.4637 8.82715C16.4637 7.88485 16.2281 7.17812 15.757 6.70697C15.2858 6.22308 14.7383 5.98114 14.1143 5.98114C13.4649 5.98114 12.9046 6.22308 12.4334 6.70697C11.975 7.17812 11.7458 7.88485 11.7458 8.82715C11.7458 9.76945 11.975 10.4826 12.4334 10.9664C12.9046 11.4376 13.4585 11.6732 14.0952 11.6732Z" fill="#334158"/>
<path d="M25.115 13.7934C24.1473 13.7934 23.2941 13.5832 22.5555 13.163C21.817 12.7428 21.2312 12.1571 20.7983 11.4058C20.378 10.6545 20.1679 9.79492 20.1679 8.82715C20.1679 7.85938 20.378 6.99984 20.7983 6.24855C21.2312 5.49725 21.817 4.91149 22.5555 4.49128C23.2941 4.07106 24.1473 3.86095 25.115 3.86095C26.3247 3.86095 27.3435 4.1793 28.1712 4.81599C28.8445 5.32357 29.3198 5.99125 29.597 6.81905C29.698 7.12048 29.4584 7.41369 29.1405 7.41369H27.5592C27.3339 7.41369 27.1428 7.25974 27.0434 7.0575C26.9003 6.76628 26.6905 6.52846 26.4139 6.34405C26.0446 6.07664 25.6053 5.94293 25.0959 5.94293C24.421 5.94293 23.848 6.19761 23.3769 6.70697C22.9057 7.21632 22.6701 7.92305 22.6701 8.82715C22.6701 9.73125 22.9057 10.438 23.3769 10.9473C23.848 11.4567 24.421 11.7114 25.0959 11.7114C25.6053 11.7114 26.0446 11.584 26.4139 11.3294C26.6921 11.1439 26.9028 10.901 27.0459 10.6007C27.1434 10.3961 27.3353 10.2406 27.5619 10.2406H29.136C29.4554 10.2406 29.6951 10.5364 29.5899 10.8379C29.3116 11.635 28.8387 12.2954 28.1712 12.8192C27.3435 13.4686 26.3247 13.7934 25.115 13.7934Z" fill="#334158"/>
<path d="M35.8545 13.7934C34.9377 13.7934 34.11 13.5832 33.3714 13.163C32.6456 12.7428 32.0662 12.1634 31.6332 11.4249C31.213 10.6736 31.0029 9.80766 31.0029 8.82715C31.0029 7.84664 31.2194 6.98711 31.6523 6.24855C32.0853 5.49725 32.6647 4.91149 33.3905 4.49128C34.1291 4.07106 34.9568 3.86095 35.8736 3.86095C36.7777 3.86095 37.5927 4.07106 38.3185 4.49128C39.0571 4.91149 39.6364 5.49725 40.0567 6.24855C40.4896 6.98711 40.7061 7.84664 40.7061 8.82715C40.7061 9.80766 40.4896 10.6736 40.0567 11.4249C39.6364 12.1634 39.0571 12.7428 38.3185 13.163C37.5799 13.5832 36.7586 13.7934 35.8545 13.7934ZM35.8545 11.6732C36.4912 11.6732 37.0451 11.4376 37.5163 10.9664C37.9874 10.4826 38.223 9.76945 38.223 8.82715C38.223 7.88485 37.9874 7.17812 37.5163 6.70697C37.0451 6.22308 36.4976 5.98114 35.8736 5.98114C35.2242 5.98114 34.6639 6.22308 34.1927 6.70697C33.7343 7.17812 33.5051 7.88485 33.5051 8.82715C33.5051 9.76945 33.7343 10.4826 34.1927 10.9664C34.6639 11.4376 35.2178 11.6732 35.8545 11.6732Z" fill="#334158"/>
<path d="M47.3237 13.7934C46.3432 13.7934 45.4582 13.6023 44.6687 13.2203C43.8792 12.8256 43.2489 12.2335 42.7778 11.444C42.3193 10.6545 42.0901 9.65485 42.0901 8.44514V0.695205C42.0901 0.418178 42.3147 0.193604 42.5917 0.193604H44.0334C44.3105 0.193604 44.535 0.418178 44.535 0.695205V8.46424C44.535 9.50841 44.7833 10.2852 45.28 10.7945C45.7893 11.3039 46.4897 11.5586 47.381 11.5586C48.2597 11.5586 48.9537 11.3039 49.463 10.7945C49.9724 10.2852 50.2271 9.50841 50.2271 8.46424V0.695205C50.2271 0.418178 50.4516 0.193604 50.7287 0.193604H52.1704C52.4474 0.193604 52.672 0.418178 52.672 0.695205V8.44514C52.672 9.65485 52.43 10.6545 51.9461 11.444C51.4622 12.2335 50.8128 12.8256 49.9978 13.2203C49.1956 13.6023 48.3042 13.7934 47.3237 13.7934Z" fill="#334158"/>
<path d="M55.6693 13.5641C55.3923 13.5641 55.1677 13.3396 55.1677 13.0625V0.601086C55.1677 0.376039 55.3502 0.193604 55.5752 0.193604V0.193604C56.7005 0.193604 57.6126 1.10579 57.6126 2.23102V13.0625C57.6126 13.3396 57.3881 13.5641 57.111 13.5641H55.6693Z" fill="#334158"/>
</svg>
