<svg width="88" height="22" viewBox="0 0 88 22" fill="none" xmlns="http://www.w3.org/2000/svg">
<path d="M1.05403 21.3432C0.631819 21.3432 0.289551 21.001 0.289551 20.5787V1.58658C0.289551 1.24359 0.567597 0.965546 0.910585 0.965546V0.965546C2.62552 0.965546 4.01575 2.35578 4.01575 4.07072V17.6676C4.01575 18.0899 4.35802 18.4321 4.78023 18.4321H12.2757C12.6979 18.4321 13.0402 18.7744 13.0402 19.1966V20.5787C13.0402 21.001 12.6979 21.3432 12.2757 21.3432H1.05403Z" fill="white"/>
<path d="M21.541 21.6926C20.1436 21.6926 18.8822 21.3723 17.7565 20.7319C16.6503 20.0915 15.7673 19.2084 15.1074 18.0828C14.467 16.9378 14.1468 15.6181 14.1468 14.1237C14.1468 12.6293 14.4767 11.3193 15.1366 10.1937C15.7964 9.04869 16.6794 8.15596 17.7857 7.51551C18.9113 6.87507 20.1728 6.55485 21.5701 6.55485C22.948 6.55485 24.1901 6.87507 25.2963 7.51551C26.4219 8.15596 27.3049 9.04869 27.9454 10.1937C28.6052 11.3193 28.9352 12.6293 28.9352 14.1237C28.9352 15.6181 28.6052 16.9378 27.9454 18.0828C27.3049 19.2084 26.4219 20.0915 25.2963 20.7319C24.1707 21.3723 22.9189 21.6926 21.541 21.6926ZM21.541 18.4612C22.5113 18.4612 23.3556 18.1022 24.0736 17.3841C24.7917 16.6467 25.1507 15.5598 25.1507 14.1237C25.1507 12.6876 24.7917 11.6105 24.0736 10.8924C23.3556 10.1549 22.521 9.78617 21.5701 9.78617C20.5803 9.78617 19.7264 10.1549 19.0083 10.8924C18.3097 11.6105 17.9603 12.6876 17.9603 14.1237C17.9603 15.5598 18.3097 16.6467 19.0083 17.3841C19.7264 18.1022 20.5706 18.4612 21.541 18.4612Z" fill="white"/>
<path d="M38.336 21.6926C36.861 21.6926 35.5608 21.3723 34.4351 20.7319C33.3095 20.0915 32.4168 19.1987 31.7569 18.0537C31.1165 16.9087 30.7963 15.5987 30.7963 14.1237C30.7963 12.6487 31.1165 11.3388 31.7569 10.1937C32.4168 9.04869 33.3095 8.15596 34.4351 7.51551C35.5608 6.87507 36.861 6.55485 38.336 6.55485C40.1797 6.55485 41.7323 7.04003 42.9938 8.0104C44.02 8.78399 44.7443 9.80159 45.1669 11.0632C45.3208 11.5226 44.9556 11.9695 44.4711 11.9695H42.0611C41.7177 11.9695 41.4265 11.7349 41.275 11.4266C41.0569 10.9828 40.7371 10.6203 40.3155 10.3393C39.7527 9.93172 39.0832 9.72795 38.3069 9.72795C37.2783 9.72795 36.405 10.1161 35.6869 10.8924C34.9688 11.6687 34.6098 12.7458 34.6098 14.1237C34.6098 15.5016 34.9688 16.5787 35.6869 17.355C36.405 18.1313 37.2783 18.5195 38.3069 18.5195C39.0832 18.5195 39.7527 18.3254 40.3155 17.9372C40.7396 17.6546 41.0606 17.2844 41.2788 16.8267C41.4274 16.515 41.7199 16.2779 42.0653 16.2779H44.4643C44.951 16.2779 45.3164 16.7288 45.156 17.1883C44.7319 18.4031 44.0111 19.4096 42.9938 20.2079C41.7323 21.1977 40.1797 21.6926 38.336 21.6926Z" fill="white"/>
<path d="M54.7037 21.6926C53.3064 21.6926 52.0449 21.3723 50.9193 20.7319C49.8131 20.0915 48.93 19.2084 48.2702 18.0828C47.6298 16.9378 47.3095 15.6181 47.3095 14.1237C47.3095 12.6293 47.6395 11.3193 48.2993 10.1937C48.9592 9.04869 49.8422 8.15596 50.9484 7.51551C52.074 6.87507 53.3355 6.55485 54.7328 6.55485C56.1108 6.55485 57.3528 6.87507 58.459 7.51551C59.5847 8.15596 60.4677 9.04869 61.1081 10.1937C61.768 11.3193 62.0979 12.6293 62.0979 14.1237C62.0979 15.6181 61.768 16.9378 61.1081 18.0828C60.4677 19.2084 59.5847 20.0915 58.459 20.7319C57.3334 21.3723 56.0816 21.6926 54.7037 21.6926ZM54.7037 18.4612C55.6741 18.4612 56.5183 18.1022 57.2364 17.3841C57.9544 16.6467 58.3135 15.5598 58.3135 14.1237C58.3135 12.6876 57.9544 11.6105 57.2364 10.8924C56.5183 10.1549 55.6838 9.78617 54.7328 9.78617C53.7431 9.78617 52.8891 10.1549 52.1711 10.8924C51.4724 11.6105 51.1231 12.6876 51.1231 14.1237C51.1231 15.5598 51.4724 16.6467 52.1711 17.3841C52.8891 18.1022 53.7334 18.4612 54.7037 18.4612Z" fill="white"/>
<path d="M72.1837 21.6926C70.6893 21.6926 69.3405 21.4014 68.1373 20.8192C66.934 20.2176 65.9734 19.3152 65.2553 18.1119C64.5566 16.9087 64.2073 15.3852 64.2073 13.5415V1.73002C64.2073 1.30782 64.5496 0.965546 64.9718 0.965546H67.169C67.5912 0.965546 67.9335 1.30781 67.9335 1.73002V13.5706C67.9335 15.162 68.3119 16.3458 69.0688 17.1221C69.8451 17.8984 70.9125 18.2866 72.271 18.2866C73.6101 18.2866 74.6678 17.8984 75.4441 17.1221C76.2204 16.3458 76.6086 15.162 76.6086 13.5706V1.73002C76.6086 1.30781 76.9508 0.965546 77.373 0.965546H79.5703C79.9925 0.965546 80.3348 1.30781 80.3348 1.73002V13.5415C80.3348 15.3852 79.966 16.9087 79.2286 18.1119C78.4911 19.3152 77.5013 20.2176 76.2592 20.8192C75.0366 21.4014 73.6781 21.6926 72.1837 21.6926Z" fill="white"/>
<path d="M84.903 21.3432C84.4808 21.3432 84.1385 21.001 84.1385 20.5787V1.58658C84.1385 1.24359 84.4166 0.965546 84.7596 0.965546V0.965546C86.4745 0.965546 87.8647 2.35578 87.8647 4.07072V20.5787C87.8647 21.001 87.5225 21.3432 87.1003 21.3432H84.903Z" fill="white"/>
</svg>
