<svg width="88" height="22" viewBox="0 0 88 22" fill="none" xmlns="http://www.w3.org/2000/svg">
<path d="M1.05403 20.9563C0.631819 20.9563 0.289551 20.614 0.289551 20.1918V1.19962C0.289551 0.85663 0.567597 0.578583 0.910585 0.578583V0.578583C2.62552 0.578583 4.01575 1.96881 4.01575 3.68375V17.2807C4.01575 17.7029 4.35802 18.0452 4.78023 18.0452H12.2757C12.6979 18.0452 13.0402 18.3874 13.0402 18.8096V20.1918C13.0402 20.614 12.6979 20.9563 12.2757 20.9563H1.05403Z" fill="white"/>
<path d="M21.541 21.3056C20.1436 21.3056 18.8822 20.9854 17.7565 20.3449C16.6503 19.7045 15.7673 18.8215 15.1074 17.6958C14.467 16.5508 14.1468 15.2311 14.1468 13.7367C14.1468 12.2424 14.4767 10.9324 15.1366 9.80676C15.7964 8.66173 16.6794 7.76899 17.7857 7.12855C18.9113 6.48811 20.1728 6.16789 21.5701 6.16789C22.948 6.16789 24.1901 6.48811 25.2963 7.12855C26.4219 7.76899 27.3049 8.66173 27.9454 9.80676C28.6052 10.9324 28.9352 12.2424 28.9352 13.7367C28.9352 15.2311 28.6052 16.5508 27.9454 17.6958C27.3049 18.8215 26.4219 19.7045 25.2963 20.3449C24.1707 20.9854 22.9189 21.3056 21.541 21.3056ZM21.541 18.0743C22.5113 18.0743 23.3556 17.7152 24.0736 16.9972C24.7917 16.2597 25.1507 15.1729 25.1507 13.7367C25.1507 12.3006 24.7917 11.2235 24.0736 10.5054C23.3556 9.76795 22.521 9.39921 21.5701 9.39921C20.5803 9.39921 19.7264 9.76795 19.0083 10.5054C18.3097 11.2235 17.9603 12.3006 17.9603 13.7367C17.9603 15.1729 18.3097 16.2597 19.0083 16.9972C19.7264 17.7152 20.5706 18.0743 21.541 18.0743Z" fill="white"/>
<path d="M38.336 21.3056C36.861 21.3056 35.5608 20.9854 34.4351 20.3449C33.3095 19.7045 32.4168 18.8118 31.7569 17.6667C31.1165 16.5217 30.7963 15.2117 30.7963 13.7367C30.7963 12.2618 31.1165 10.9518 31.7569 9.80676C32.4168 8.66173 33.3095 7.76899 34.4351 7.12855C35.5608 6.48811 36.861 6.16789 38.336 6.16789C40.1797 6.16789 41.7323 6.65307 42.9938 7.62344C44.02 8.39702 44.7443 9.41463 45.1669 10.6762C45.3208 11.1356 44.9556 11.5825 44.4711 11.5825H42.0611C41.7177 11.5825 41.4265 11.3479 41.275 11.0397C41.0569 10.5958 40.7371 10.2334 40.3155 9.95231C39.7527 9.54476 39.0832 9.34098 38.3069 9.34098C37.2783 9.34098 36.405 9.72913 35.6869 10.5054C34.9688 11.2817 34.6098 12.3588 34.6098 13.7367C34.6098 15.1147 34.9688 16.1918 35.6869 16.9681C36.405 17.7444 37.2783 18.1325 38.3069 18.1325C39.0832 18.1325 39.7527 17.9384 40.3155 17.5503C40.7396 17.2676 41.0606 16.8974 41.2788 16.4398C41.4274 16.128 41.7199 15.891 42.0653 15.891H44.4643C44.951 15.891 45.3164 16.3418 45.156 16.8013C44.7319 18.0161 44.0111 19.0227 42.9938 19.8209C41.7323 20.8107 40.1797 21.3056 38.336 21.3056Z" fill="white"/>
<path d="M54.7037 21.3056C53.3064 21.3056 52.0449 20.9854 50.9193 20.3449C49.8131 19.7045 48.93 18.8215 48.2702 17.6958C47.6298 16.5508 47.3095 15.2311 47.3095 13.7367C47.3095 12.2424 47.6395 10.9324 48.2993 9.80676C48.9592 8.66173 49.8422 7.76899 50.9484 7.12855C52.074 6.48811 53.3355 6.16789 54.7328 6.16789C56.1108 6.16789 57.3528 6.48811 58.459 7.12855C59.5847 7.76899 60.4677 8.66173 61.1081 9.80676C61.768 10.9324 62.0979 12.2424 62.0979 13.7367C62.0979 15.2311 61.768 16.5508 61.1081 17.6958C60.4677 18.8215 59.5847 19.7045 58.459 20.3449C57.3334 20.9854 56.0816 21.3056 54.7037 21.3056ZM54.7037 18.0743C55.6741 18.0743 56.5183 17.7152 57.2364 16.9972C57.9544 16.2597 58.3135 15.1729 58.3135 13.7367C58.3135 12.3006 57.9544 11.2235 57.2364 10.5054C56.5183 9.76795 55.6838 9.39921 54.7328 9.39921C53.7431 9.39921 52.8891 9.76795 52.1711 10.5054C51.4724 11.2235 51.1231 12.3006 51.1231 13.7367C51.1231 15.1729 51.4724 16.2597 52.1711 16.9972C52.8891 17.7152 53.7334 18.0743 54.7037 18.0743Z" fill="white"/>
<path d="M72.1837 21.3056C70.6893 21.3056 69.3405 21.0145 68.1373 20.4323C66.934 19.8306 65.9734 18.9282 65.2553 17.7249C64.5566 16.5217 64.2073 14.9982 64.2073 13.1545V1.34306C64.2073 0.920852 64.5496 0.578583 64.9718 0.578583H67.169C67.5912 0.578583 67.9335 0.920851 67.9335 1.34306V13.1836C67.9335 14.775 68.3119 15.9589 69.0688 16.7352C69.8451 17.5115 70.9125 17.8996 72.271 17.8996C73.6101 17.8996 74.6678 17.5115 75.4441 16.7352C76.2204 15.9589 76.6086 14.775 76.6086 13.1836V1.34306C76.6086 0.920852 76.9508 0.578583 77.373 0.578583H79.5703C79.9925 0.578583 80.3348 0.920851 80.3348 1.34306V13.1545C80.3348 14.9982 79.966 16.5217 79.2286 17.7249C78.4911 18.9282 77.5013 19.8306 76.2592 20.4323C75.0366 21.0145 73.6781 21.3056 72.1837 21.3056Z" fill="white"/>
<path d="M84.903 20.9563C84.4808 20.9563 84.1385 20.614 84.1385 20.1918V1.19962C84.1385 0.856629 84.4166 0.578583 84.7596 0.578583V0.578583C86.4745 0.578583 87.8647 1.96882 87.8647 3.68376V20.1918C87.8647 20.614 87.5225 20.9563 87.1003 20.9563H84.903Z" fill="white"/>
</svg>
