<svg width="35" height="35" viewBox="0 0 35 35" fill="none" xmlns="http://www.w3.org/2000/svg">
<g clip-path="url(#clip0_11_14843)">
<g filter="url(#filter0_d_11_14843)">
<rect width="34.0102" height="34.0102" rx="7.48224" fill="#457EFF"/>
</g>
<g clip-path="url(#clip1_11_14843)">
<line x1="17.2551" y1="1.09279e-08" x2="17.2551" y2="34.0102" stroke="#F9F9F9" stroke-opacity="0.19" stroke-width="0.5"/>
<line x1="32.0255" y1="2.33828" x2="2.43663" y2="31.9271" stroke="#F9F9F9" stroke-opacity="0.19" stroke-width="0.5"/>
<line x1="31.6719" y1="31.9271" x2="2.08308" y2="2.33829" stroke="#F9F9F9" stroke-opacity="0.19" stroke-width="0.5"/>
<circle cx="17.0051" cy="17.0051" r="11.1412" stroke="#F9F9F9" stroke-opacity="0.19" stroke-width="0.5"/>
<circle cx="17.0051" cy="17.0051" r="4.76142" fill="#457EFF"/>
<circle cx="17.0051" cy="17.0051" r="4.51142" stroke="#F9F9F9" stroke-opacity="0.19" stroke-width="0.5"/>
</g>
<path fill-rule="evenodd" clip-rule="evenodd" d="M12.9232 7.38814C12.6652 8.75527 11.1943 16.4563 10.8921 18.0267C10.5899 19.5971 11.8851 21.0047 13.1567 21.0047C14.4282 21.0047 14.5963 21.0047 15.1182 21.0047C15.6402 21.0047 16.4172 21.3713 16.1247 22.7065C15.8322 24.0417 15.5298 25.4152 15.2325 26.7126C14.9352 28.0099 16.4251 28.533 17.0711 27.5216C17.7171 26.5102 22.5403 18.7906 23.0954 17.7525C23.6504 16.7143 22.7413 15.1089 21.3728 15.1089C20.0044 15.1089 19.4382 15.1089 18.7204 15.1089C18.0026 15.1089 17.9018 14.5964 18.1623 13.5407C18.4229 12.4851 18.7361 11.1041 19.2205 9.08039C19.7048 7.05664 17.753 5.95737 16.7245 5.95737C15.6961 5.95737 14.5903 5.95737 14.2854 5.95737C13.9805 5.95737 13.1813 6.021 12.9232 7.38814Z" fill="white"/>
</g>
<defs>
<filter id="filter0_d_11_14843" x="-13.6041" y="-5.44162" width="61.2183" height="61.2183" filterUnits="userSpaceOnUse" color-interpolation-filters="sRGB">
<feFlood flood-opacity="0" result="BackgroundImageFix"/>
<feColorMatrix in="SourceAlpha" type="matrix" values="0 0 0 0 0 0 0 0 0 0 0 0 0 0 0 0 0 0 127 0" result="hardAlpha"/>
<feOffset dy="8.16244"/>
<feGaussianBlur stdDeviation="6.80203"/>
<feColorMatrix type="matrix" values="0 0 0 0 0.101961 0 0 0 0 0.101961 0 0 0 0 0.101961 0 0 0 0.16 0"/>
<feBlend mode="normal" in2="BackgroundImageFix" result="effect1_dropShadow_11_14843"/>
<feBlend mode="normal" in="SourceGraphic" in2="effect1_dropShadow_11_14843" result="shape"/>
</filter>
<clipPath id="clip0_11_14843">
<rect width="34.0102" height="34.0102" rx="8" fill="white"/>
</clipPath>
<clipPath id="clip1_11_14843">
<rect width="29.5888" height="34.0102" fill="white" transform="translate(2.25986)"/>
</clipPath>
</defs>
</svg>
