<svg width="17" height="18" viewBox="0 0 17 18" fill="none" xmlns="http://www.w3.org/2000/svg">
<path d="M16.1363 6.43973L11.1372 5.65551L8.90251 0.765268C8.84148 0.631376 8.74106 0.522988 8.61702 0.457105C8.30593 0.291334 7.9279 0.429476 7.77236 0.765268L5.53764 5.65551L0.53857 6.43973C0.400746 6.46098 0.274735 6.53111 0.178258 6.63738C0.0616232 6.76678 -0.002648 6.94087 -0.000432864 7.12139C0.00178227 7.30191 0.0703025 7.4741 0.190072 7.60012L3.80697 11.4065L2.95246 16.7813C2.93242 16.9063 2.94524 17.0349 2.98946 17.1525C3.03368 17.27 3.10753 17.3719 3.20264 17.4464C3.29776 17.521 3.41032 17.5653 3.52758 17.5743C3.64483 17.5834 3.76208 17.5567 3.86603 17.4975L8.33744 14.9599L12.8088 17.4975C12.9309 17.5676 13.0727 17.591 13.2085 17.5655C13.5511 17.5017 13.7815 17.1511 13.7224 16.7813L12.8679 11.4065L16.4848 7.60012C16.5832 7.49599 16.6482 7.35997 16.6679 7.2112C16.7211 6.83928 16.4809 6.49499 16.1363 6.43973V6.43973Z" fill="#FDBF00"/>
</svg>
